<?xml version="1.0" encoding="UTF-8"?>
<!DOCTYPE svg PUBLIC "-//W3C//DTD SVG 1.1//EN" "http://www.w3.org/Graphics/SVG/1.1/DTD/svg11.dtd">
<!-- Creator: CorelDRAW 2020 (64 Bit) -->
<svg xmlns="http://www.w3.org/2000/svg" xml:space="preserve" width="26.4303mm" height="26.4291mm" version="1.1" style="shape-rendering:geometricPrecision; text-rendering:geometricPrecision; image-rendering:optimizeQuality; fill-rule:evenodd; clip-rule:evenodd"
viewBox="0 0 19.33 19.33"
 xmlns:xlink="http://www.w3.org/1999/xlink"
 xmlns:xodm="http://www.corel.com/coreldraw/odm/2003">
 <defs>
  <!-- <style type="text/css">
   <![CDATA[
    #svgInsta {fill:url(#id0)}
   ]]>
  </style> -->
  <linearGradient id="id0" gradientUnits="userSpaceOnUse" x1="16.14" y1="15.53" x2="2.91" y2="3.55">
   <stop offset="0" style="stop-opacity:1; stop-color:#FDC05A"/>
   <stop offset="0.329412" style="stop-opacity:1; stop-color:#EE364B"/>
   <stop offset="0.65098" style="stop-opacity:1; stop-color:#AD4899"/>
   <stop offset="1" style="stop-opacity:1; stop-color:#5F5DA7"/>
  </linearGradient>
 </defs>
 <g >
  <metadata id="CorelCorpID_0Corel-Layer"/>
  <path  id="svgInsta" fill="url(#id0)" d="M17.55 13.89c0,2.05 -1.66,3.7 -3.7,3.7l-8.36 0c-2.05,0 -3.7,-1.66 -3.7,-3.7l0 -8.36c0,-2.05 1.66,-3.7 3.7,-3.7l8.36 0c2.05,0 3.7,1.66 3.7,3.7l0 8.36zm-2.7 -10.55c-0.65,0 -1.17,0.52 -1.17,1.17 0,0.65 0.52,1.17 1.17,1.17 0.65,0 1.17,-0.52 1.17,-1.17 0,-0.64 -0.52,-1.17 -1.17,-1.17zm-5.18 9.63c-1.8,0 -3.25,-1.46 -3.25,-3.25 0,-1.8 1.46,-3.25 3.25,-3.25 1.8,0 3.25,1.46 3.25,3.25 0,1.8 -1.46,3.25 -3.25,3.25zm0 -8.27c-2.77,0 -5.02,2.24 -5.02,5.01 0,2.77 2.25,5.02 5.02,5.02 2.77,0 5.02,-2.25 5.02,-5.02 0,-2.77 -2.25,-5.01 -5.02,-5.01zm4.09 -4.7l-8.17 0c-3.08,0 -5.58,2.5 -5.58,5.58l0 8.17c0,3.08 2.5,5.58 5.58,5.58l8.17 0c3.08,0 5.58,-2.5 5.58,-5.58l0 -8.17c0,-3.08 -2.5,-5.58 -5.58,-5.58z"/>
 </g>
</svg>
